<svg height="512pt" viewBox="0 -36 512 511" width="512pt" xmlns="http://www.w3.org/2000/svg"><path d="m512 19.199219v401.722656c0 10.3125-8.390625 18.699219-18.699219 18.699219h-474.613281c-10.308594 0-18.6875-8.386719-18.6875-18.699219v-401.722656c0-10.308594 8.378906-18.699219 18.6875-18.699219h474.613281c10.308594 0 18.699219 8.390625 18.699219 18.699219zm0 0" fill="#76c8ff"/><path d="m512 19.199219v401.722656c0 10.3125-8.390625 18.699219-18.699219 18.699219h-237.289062v-439.121094h237.289062c10.308594 0 18.699219 8.390625 18.699219 18.699219zm0 0" fill="#279eff"/><path d="m512 19.199219v49.078125h-205.082031l-32.007813 26.457031h-274.910156v-75.535156c0-10.308594 8.378906-18.699219 18.6875-18.699219h474.613281c10.308594 0 18.699219 8.390625 18.699219 18.699219zm0 0" fill="#e6e4f9"/><g fill="#fff"><path d="m111.886719 63.957031c-.480469 0-.980469-.023437-1.472657-.070312-.488281-.050781-.976562-.121094-1.460937-.222657-.46875-.097656-.949219-.21875-1.417969-.359374-.46875-.140626-.929687-.308594-1.378906-.5-.453125-.179688-.898438-.390626-1.332031-.617188-.429688-.230469-.859375-.492188-1.257813-.761719-.410156-.269531-.8125-.558593-1.191406-.871093-.378906-.308594-.75-.648438-1.089844-.988282-.351562-.351562-.679687-.71875-.988281-1.101562-.3125-.367188-.609375-.769532-.882813-1.179688-.269531-.410156-.519531-.828125-.75-1.257812-.226562-.429688-.4375-.882813-.628906-1.332032-.179687-.449218-.351562-.917968-.488281-1.378906-.152344-.46875-.273437-.949218-.359375-1.429687-.101562-.480469-.171875-.96875-.222656-1.449219-.050782-.492188-.078125-.992188-.078125-1.480469 0-.492187.027343-.980469.078125-1.472656.050781-.488281.121094-.976563.222656-1.457031.089844-.480469.207031-.949219.359375-1.421875.140625-.46875.308594-.929688.488281-1.378907.191406-.449218.398438-.898437.628906-1.332031.230469-.429687.480469-.859375.75-1.257812.273438-.410157.570313-.808594.882813-1.191407.308594-.378906.640625-.75.988281-1.089843.339844-.347657.710938-.679688 1.089844-.988281.382812-.3125.78125-.609376 1.191406-.878907.398438-.273437.828125-.523437 1.257813-.75.433593-.230469.878906-.441406 1.332031-.632812.449219-.1875.910156-.347657 1.378906-.488281.46875-.152344.949219-.269532 1.417969-.359376.480469-.101562.972656-.179687 1.460937-.222656.980469-.097656 1.972657-.097656 2.949219 0 .480469.042969.972657.121094 1.453125.222656.476563.089844.957032.207032 1.429688.359376.457031.140624.929687.300781 1.378906.488281.449219.191406.898438.402343 1.328125.632812.433594.226563.851563.476563 1.261719.75.410156.269531.808594.566407 1.179687.878907.390625.308593.75.640624 1.101563.988281.351562.339843.679687.710937.988281 1.089843.3125.382813.601563.78125.878906 1.191407.261719.398437.523438.828125.75 1.257812.230469.433594.441407.882813.621094 1.332031.191406.449219.359375.910157.5 1.378907.140625.472656.261719.941406.359375 1.421875.101562.480468.171875.96875.222656 1.457031.046875.492187.070313.980469.070313 1.472656 0 .488281-.023438.988281-.070313 1.480469-.050781.480469-.121094.96875-.222656 1.449219s-.21875.960937-.359375 1.429687c-.140625.460938-.308594.929688-.5 1.378906-.179687.449219-.390625.902344-.621094 1.332032-.226562.429687-.488281.847656-.75 1.257812-.277343.410156-.566406.8125-.878906 1.179688-.308594.382812-.640625.75-.988281 1.101562-.351563.339844-.710938.679688-1.101563.988282-.371093.3125-.769531.601562-1.179687.871093s-.828125.53125-1.261719.761719c-.429687.226562-.878906.4375-1.328125.617188-.449219.191406-.921875.359374-1.378906.5-.472656.140624-.949219.261718-1.429688.359374-.484375.101563-.972656.171876-1.453125.222657-.488281.046875-.988281.070312-1.476562.070312zm0 0"/><path d="m63.886719 63.957031c-.488281 0-.980469-.023437-1.46875-.070312-.492188-.050781-.980469-.121094-1.460938-.222657-.480469-.097656-.949219-.21875-1.421875-.359374-.46875-.140626-.929687-.308594-1.378906-.5-.449219-.179688-.898438-.390626-1.328125-.617188-.429687-.230469-.859375-.492188-1.261719-.761719-.410156-.269531-.808594-.558593-1.191406-.871093-.378906-.308594-.75-.640626-1.089844-.988282-.347656-.351562-.679687-.71875-.988281-1.101562-.308594-.367188-.609375-.769532-.878906-1.179688s-.519531-.828125-.75-1.257812c-.230469-.429688-.441407-.882813-.632813-1.332032-.179687-.449218-.347656-.917968-.488281-1.378906-.148437-.46875-.269531-.949218-.359375-1.429687-.101562-.480469-.167969-.96875-.21875-1.449219-.050781-.492188-.082031-.992188-.082031-1.480469 0-.492187.03125-.980469.082031-1.472656.050781-.488281.117188-.976563.21875-1.457031.089844-.480469.210938-.949219.359375-1.421875.140625-.46875.3125-.929688.488281-1.378907.191406-.460937.402344-.898437.632813-1.332031.230469-.429687.480469-.859375.75-1.257812.269531-.410157.570312-.808594.878906-1.191407.3125-.378906.640625-.75.988281-1.089843.339844-.347657.710938-.679688 1.089844-.988281.382812-.3125.78125-.609376 1.191406-.878907.402344-.273437.832032-.523437 1.261719-.75.429687-.230469.878906-.441406 1.328125-.632812.449219-.179688.910156-.347657 1.378906-.488281.472656-.152344.941406-.269532 1.421875-.359376.480469-.101562.96875-.171874 1.460938-.222656.980469-.097656 1.96875-.097656 2.949219 0 .480468.050782.96875.121094 1.449218.222656.480469.089844.960938.207032 1.429688.359376.460937.140624.929687.308593 1.378906.488281.453125.191406.902344.402343 1.332031.632812.429688.226563.851563.476563 1.261719.75.40625.269531.808594.566407 1.179688.878907.378906.308593.75.640624 1.097656.988281.351562.339843.683594.710937.992187 1.089843.308594.382813.597657.78125.867188 1.191407.273437.398437.53125.828125.761719 1.257812.230468.433594.441406.871094.621093 1.332031.1875.449219.359375.910157.5 1.378907.136719.472656.257813.941406.359375 1.421875.097656.480468.167969.96875.21875 1.457031.050782.492187.070313.980469.070313 1.472656 0 .488281-.019531.988281-.070313 1.480469-.050781.480469-.121094.96875-.21875 1.449219-.101562.480469-.222656.960937-.359375 1.429687-.140625.460938-.3125.929688-.5 1.378906-.179687.449219-.390625.902344-.621093 1.332032-.230469.429687-.488282.847656-.761719 1.257812-.269531.410156-.558594.8125-.867188 1.179688-.3125.382812-.640625.75-.992187 1.101562-.347656.347656-.71875.679688-1.097656.988282-.371094.3125-.773438.601562-1.179688.871093-.410156.269531-.832031.53125-1.261719.761719-.429687.226562-.878906.4375-1.332031.617188-.449219.191406-.917969.359374-1.378906.5-.46875.140624-.949219.261718-1.429688.359374-.480468.101563-.96875.171876-1.449218.222657-.492188.046875-.992188.070312-1.480469.070312zm0 0"/><path d="m160.882812 63.957031c-.480468 0-.980468-.023437-1.46875-.070312-.492187-.050781-.980468-.121094-1.460937-.222657-.46875-.097656-.949219-.21875-1.421875-.359374-.46875-.140626-.929688-.308594-1.378906-.5-.449219-.179688-.898438-.390626-1.328125-.617188-.429688-.230469-.859375-.492188-1.261719-.761719-.410156-.269531-.808594-.558593-1.1875-.871093-.382812-.308594-.75-.640626-1.09375-.988282-.347656-.351562-.679688-.71875-.988281-1.101562-.308594-.367188-.609375-.769532-.878907-1.179688-.269531-.410156-.519531-.828125-.75-1.257812-.230468-.429688-.441406-.882813-.628906-1.332032-.183594-.449218-.351562-.917968-.492187-1.378906-.148438-.46875-.269531-.949218-.359375-1.429687-.101563-.480469-.167969-.96875-.21875-1.449219-.050782-.492188-.082032-.992188-.082032-1.480469 0-.492187.03125-.980469.082032-1.472656.050781-.488281.117187-.976563.21875-1.457031.089844-.480469.210937-.949219.359375-1.421875.140625-.46875.3125-.929688.492187-1.378907.1875-.449218.398438-.898437.628906-1.332031.230469-.429687.480469-.859375.75-1.257812.269532-.410157.570313-.808594.878907-1.191407.3125-.378906.640625-.75.988281-1.089843.34375-.347657.710938-.679688 1.09375-.988281.378906-.3125.777344-.609376 1.1875-.878907.402344-.273437.832031-.523437 1.261719-.75.429687-.230469.878906-.441406 1.328125-.632812.449218-.179688.910156-.347657 1.378906-.488281.472656-.152344.953125-.269532 1.421875-.359376.480469-.101562.96875-.171874 1.460937-.222656.980469-.097656 1.96875-.097656 2.949219 0 .488281.050782.96875.121094 1.460938.222656.46875.089844.949219.207032 1.417969.359376.472656.140624.929687.308593 1.378906.488281.453125.191406.902344.402343 1.332031.632812.429687.226563.859375.476563 1.261719.75.40625.269531.808594.566407 1.1875.878907.378906.308593.75.640624 1.089844.988281.351562.339843.679687.710937.988281 1.089843.3125.382813.601562.78125.882812 1.191407.257813.398437.519531.828125.75 1.257812.230469.433594.4375.882813.617188 1.332031.191406.449219.363281.910157.5 1.378907.140625.472656.261719.941406.363281 1.421875.097656.480468.167969.96875.21875 1.457031.050781.492187.070312.980469.070312 1.472656 0 .488281-.023437.988281-.070312 1.480469-.050781.480469-.121094.96875-.21875 1.449219-.101562.480469-.222656.960937-.363281 1.429687-.136719.460938-.308594.929688-.5 1.378906-.179688.449219-.386719.902344-.617188 1.332032-.230469.429687-.492187.847656-.75 1.257812-.28125.410156-.570312.8125-.882812 1.179688-.308594.382812-.636719.75-.988281 1.101562-.339844.339844-.710938.679688-1.089844.988282-.378906.3125-.78125.601562-1.1875.871093-.402344.269531-.832032.53125-1.261719.761719-.429687.226562-.878906.4375-1.332031.617188-.449219.191406-.90625.359374-1.378906.5-.46875.140624-.949219.261718-1.417969.359374-.492188.101563-.972657.171876-1.460938.222657-.492187.046875-.992187.070312-1.480469.070312zm0 0"/><path d="m182.554688 334.28125c-3.691407 0-7.390626-1.355469-10.289063-4.085938l-63.214844-59.605468c-3.128906-2.953125-4.925781-7.109375-4.925781-11.410156-.003906-4.304688 1.789062-8.464844 4.917969-11.417969l63.222656-59.613281c6.03125-5.683594 15.523437-5.40625 21.203125.621093 5.683594 6.027344 5.40625 15.519531-.621094 21.203125l-52.175781 49.195313 52.175781 49.199219c6.027344 5.683593 6.304688 15.175781.621094 21.203124-2.949219 3.128907-6.929688 4.710938-10.914062 4.710938zm0 0"/><path d="m295.839844 205.160156-39.828125 89.4375-13.710938 30.789063c-2.480469 5.582031-7.960937 8.898437-13.710937 8.898437-2.039063 0-4.109375-.417968-6.089844-1.296875-7.570312-3.371093-10.96875-12.242187-7.597656-19.808593l41.109375-92.308594 12.429687-27.910156c3.367188-7.566407 12.226563-10.976563 19.796875-7.609376 7.570313 3.382813 10.96875 12.242188 7.601563 19.808594zm0 0"/></g><path d="m329.441406 334.28125c-3.984375 0-7.964844-1.582031-10.914062-4.710938-5.683594-6.027343-5.40625-15.519531.625-21.203124l52.175781-49.195313-52.175781-49.199219c-6.03125-5.679687-6.308594-15.175781-.625-21.203125 5.683594-6.023437 15.175781-6.304687 21.203125-.621093l63.214843 59.605468c3.136719 2.960938 4.929688 7.125 4.929688 11.425782-.003906 4.300781-1.800781 8.457031-4.929688 11.410156l-63.214843 59.605468c-2.898438 2.730469-6.597657 4.085938-10.289063 4.085938zm0 0" fill="#ffe8cc"/><path d="m295.839844 205.160156-39.828125 89.4375v-73.726562l12.429687-27.910156c3.367188-7.566407 12.226563-10.976563 19.796875-7.609376 7.570313 3.382813 10.96875 12.242188 7.601563 19.808594zm0 0" fill="#ffe8cc"/><path d="m512 19.199219v49.078125h-205.082031l-32.007813 26.457031h-18.898437v-94.234375h237.289062c10.308594 0 18.699219 8.390625 18.699219 18.699219zm0 0" fill="#c2c0e2"/></svg>